<svg width="91" height="90" viewBox="0 0 91 90" fill="none" xmlns="http://www.w3.org/2000/svg">
<g clip-path="url(#clip0_12_41)">
<path d="M23.1016 79.4531C22.1313 79.4531 21.3438 80.2406 21.3438 81.2109C21.3438 82.1813 22.1313 82.9688 23.1016 82.9688C24.0719 82.9688 24.8594 82.1813 24.8594 81.2109C24.8594 80.2406 24.0719 79.4531 23.1016 79.4531Z" fill="url(#paint0_linear_12_41)"/>
<path d="M17.4963 47.4878C17.166 47.0294 16.6353 46.7578 16.0703 46.7578H9.03906C8.06822 46.7578 7.28125 47.545 7.28125 48.5156C7.28125 49.4863 8.06822 50.2734 9.03906 50.2734H13.6315L10.8871 58.5067C10.58 59.4276 11.0778 60.423 11.9989 60.7301C12.1833 60.7917 12.3706 60.8208 12.555 60.8208C13.291 60.8208 13.9769 60.355 14.2223 59.6183L17.738 49.0714C17.9167 48.5355 17.8267 47.9463 17.4963 47.4878Z" fill="url(#paint1_linear_12_41)"/>
<path d="M38.59 47.4878C38.2597 47.0294 37.729 46.7578 37.1641 46.7578H30.1328C29.162 46.7578 28.375 47.545 28.375 48.5156C28.375 49.4863 29.162 50.2734 30.1328 50.2734H34.7253L31.9808 58.5067C31.6737 59.4276 32.1715 60.423 33.0926 60.7301C33.277 60.7917 33.4644 60.8208 33.6488 60.8208C34.3848 60.8208 35.0707 60.355 35.3161 59.6183L38.8317 49.0714C39.0105 48.5355 38.9205 47.9463 38.59 47.4878Z" fill="url(#paint2_linear_12_41)"/>
<path d="M59.6838 47.4878C59.3535 47.0294 58.8228 46.7578 58.2578 46.7578H51.2266C50.2557 46.7578 49.4688 47.545 49.4688 48.5156C49.4688 49.4863 50.2557 50.2734 51.2266 50.2734H55.819L53.0746 58.5067C52.7675 59.4276 53.2653 60.423 54.1864 60.7301C54.3708 60.7917 54.5581 60.8208 54.7425 60.8208C55.4785 60.8208 56.1644 60.355 56.4098 59.6183L59.9254 49.0714C60.104 48.5355 60.0142 47.9463 59.6838 47.4878Z" fill="url(#paint3_linear_12_41)"/>
<path d="M44.1953 79.4531H30.1328C29.162 79.4531 28.375 80.2403 28.375 81.2109C28.375 82.1816 29.162 82.9688 30.1328 82.9688H44.1953C45.1662 82.9688 45.9531 82.1816 45.9531 81.2109C45.9531 80.2403 45.1662 79.4531 44.1953 79.4531Z" fill="url(#paint4_linear_12_41)"/>
<path d="M81.4609 29.1797C76.6146 29.1797 72.6719 33.1225 72.6719 37.9688C72.6719 40.7426 73.9978 43.3484 76.1875 44.9965V64.8633H67.0469V40.957V33.3984C67.0469 14.9824 52.0643 0 33.6484 0C15.2325 0 0.25 14.9824 0.25 33.3984V40.957V84.7266C0.25 87.6343 2.61566 90 5.52344 90H16.0703H51.2266H61.7734C64.6812 90 67.0469 87.6343 67.0469 84.7266V79.4531H77.9453C82.7916 79.4531 86.7344 75.5104 86.7344 70.6641V44.9965C88.9241 43.3484 90.25 40.7426 90.25 37.9688C90.25 33.1225 86.3072 29.1797 81.4609 29.1797ZM3.76562 42.7148H21.3438V64.8633H3.76562V42.7148ZM49.4688 86.4844H17.8281V75.9375H49.4688V86.4844ZM63.5312 77.6953V84.7266C63.5312 85.6958 62.7427 86.4844 61.7734 86.4844H52.9844V74.1797C52.9844 73.209 52.1974 72.4219 51.2266 72.4219H16.0703C15.0995 72.4219 14.3125 73.209 14.3125 74.1797V86.4844H5.52344C4.55418 86.4844 3.76562 85.6958 3.76562 84.7266V68.3789H23.1016H44.1953H63.5312V77.6953ZM24.8594 64.8633V42.7148H42.4375V64.8633H24.8594ZM63.5312 64.8633H45.9531V42.7148H63.5312V64.8633ZM63.5312 39.1992H3.76562V33.3984C3.76562 16.9211 17.1711 3.51562 33.6484 3.51562C50.1258 3.51562 63.5312 16.9211 63.5312 33.3984V39.1992ZM76.1875 75.9375H67.0469V68.3789H76.1875V75.9375ZM83.2188 70.6641C83.2188 72.9555 81.749 74.9095 79.7031 75.6352V66.6211V53.7891H83.2188V70.6641ZM83.2188 50.2734H79.7031V46.579C80.2797 46.6966 80.8686 46.7578 81.4609 46.7578C82.0533 46.7578 82.6422 46.6966 83.2188 46.579V50.2734ZM84.0978 42.5371C83.2987 42.9984 82.387 43.2422 81.4609 43.2422C80.5349 43.2422 79.6231 42.9984 78.824 42.5371C77.1977 41.5955 76.1875 39.845 76.1875 37.9688C76.1875 35.061 78.5532 32.6953 81.4609 32.6953C84.3687 32.6953 86.7344 35.061 86.7344 37.9688C86.7344 39.8457 85.7235 41.5967 84.0978 42.5371Z" fill="url(#paint5_linear_12_41)"/>
<path d="M33.6484 7.03125C19.1096 7.03125 7.28125 18.8596 7.28125 33.3984C7.28125 34.3691 8.06822 35.1562 9.03906 35.1562H26.6172H58.2578C59.2287 35.1562 60.0156 34.3691 60.0156 33.3984C60.0156 18.8596 48.1873 7.03125 33.6484 7.03125ZM26.6172 31.6406H10.8638C11.7644 19.8584 21.6394 10.5469 33.6484 10.5469C45.6575 10.5469 55.5325 19.8585 56.433 31.6406H26.6172Z" fill="url(#paint6_linear_12_41)"/>
<path d="M33.6484 14.0625C32.6776 14.0625 31.8906 14.8496 31.8906 15.8203V22.8516C31.8906 23.8222 32.6776 24.6094 33.6484 24.6094C34.6193 24.6094 35.4062 23.8222 35.4062 22.8516V15.8203C35.4062 14.8496 34.6193 14.0625 33.6484 14.0625Z" fill="url(#paint7_linear_12_41)"/>
<path d="M27.4328 24.6971L22.4617 19.726C21.7753 19.0399 20.6622 19.0397 19.9758 19.726C19.2894 20.4124 19.2892 21.5255 19.9758 22.2121L24.9469 27.1832C25.2902 27.5263 25.74 27.698 26.1899 27.698C26.6397 27.698 27.0897 27.5263 27.4328 27.1832C28.1192 26.4967 28.1194 25.3837 27.4328 24.6971Z" fill="url(#paint8_linear_12_41)"/>
<path d="M47.3209 19.7258C46.6345 19.0396 45.5215 19.0396 44.835 19.7258L39.8639 24.6969C39.1775 25.3833 39.1775 26.4964 39.8639 27.183C40.2072 27.5263 40.6571 27.6978 41.1069 27.6978C41.5567 27.6978 42.0067 27.5261 42.3498 27.183L47.3209 22.2119C48.0074 21.5255 48.0074 20.4124 47.3209 19.7258Z" fill="url(#paint9_linear_12_41)"/>
</g>
<defs>
<linearGradient id="paint0_linear_12_41" x1="21.3438" y1="81.2109" x2="24.8594" y2="81.2109" gradientUnits="userSpaceOnUse">
<stop stop-color="#2132A8"/>
<stop offset="1" stop-color="#F82582"/>
</linearGradient>
<linearGradient id="paint1_linear_12_41" x1="7.28125" y1="53.7893" x2="17.8282" y2="53.7893" gradientUnits="userSpaceOnUse">
<stop stop-color="#2132A8"/>
<stop offset="1" stop-color="#F82582"/>
</linearGradient>
<linearGradient id="paint2_linear_12_41" x1="28.375" y1="53.7893" x2="38.9219" y2="53.7893" gradientUnits="userSpaceOnUse">
<stop stop-color="#2132A8"/>
<stop offset="1" stop-color="#F82582"/>
</linearGradient>
<linearGradient id="paint3_linear_12_41" x1="49.4688" y1="53.7893" x2="60.0156" y2="53.7893" gradientUnits="userSpaceOnUse">
<stop stop-color="#2132A8"/>
<stop offset="1" stop-color="#F82582"/>
</linearGradient>
<linearGradient id="paint4_linear_12_41" x1="28.375" y1="81.2109" x2="45.9531" y2="81.2109" gradientUnits="userSpaceOnUse">
<stop stop-color="#2132A8"/>
<stop offset="1" stop-color="#F82582"/>
</linearGradient>
<linearGradient id="paint5_linear_12_41" x1="0.25" y1="45" x2="90.25" y2="45" gradientUnits="userSpaceOnUse">
<stop stop-color="#2132A8"/>
<stop offset="1" stop-color="#F82582"/>
</linearGradient>
<linearGradient id="paint6_linear_12_41" x1="7.28125" y1="21.0938" x2="60.0156" y2="21.0938" gradientUnits="userSpaceOnUse">
<stop stop-color="#2132A8"/>
<stop offset="1" stop-color="#F82582"/>
</linearGradient>
<linearGradient id="paint7_linear_12_41" x1="31.8906" y1="19.3359" x2="35.4062" y2="19.3359" gradientUnits="userSpaceOnUse">
<stop stop-color="#2132A8"/>
<stop offset="1" stop-color="#F82582"/>
</linearGradient>
<linearGradient id="paint8_linear_12_41" x1="19.4609" y1="23.4547" x2="27.9477" y2="23.4547" gradientUnits="userSpaceOnUse">
<stop stop-color="#2132A8"/>
<stop offset="1" stop-color="#F82582"/>
</linearGradient>
<linearGradient id="paint9_linear_12_41" x1="39.3491" y1="23.4545" x2="47.8358" y2="23.4545" gradientUnits="userSpaceOnUse">
<stop stop-color="#2132A8"/>
<stop offset="1" stop-color="#F82582"/>
</linearGradient>
<clipPath id="clip0_12_41">
<rect width="90" height="90" fill="white" transform="translate(0.25)"/>
</clipPath>
</defs>
</svg>
