<svg width="91" height="90" viewBox="0 0 91 90" fill="none" xmlns="http://www.w3.org/2000/svg">
<g clip-path="url(#clip0_12_21)">
<path d="M50.1589 12.593C47.3574 12.1577 44.7172 14.0803 44.2723 16.886C44.0601 18.2455 44.3897 19.6058 45.2006 20.7154C46.0115 21.8257 47.207 22.5535 48.5665 22.765C48.8343 22.8069 49.1008 22.8268 49.3637 22.8268C51.8556 22.8268 54.0522 21.012 54.449 18.4776C54.8857 15.6782 52.9638 13.0394 50.1644 12.5944C50.1623 12.5937 50.1609 12.5937 50.1589 12.593ZM50.9794 17.9358C50.8407 18.8251 50.0003 19.4348 49.1076 19.2954C48.6743 19.2281 48.2939 18.9967 48.0365 18.6438C47.779 18.2915 47.6746 17.8596 47.7412 17.4318C47.8696 16.623 48.5713 16.0434 49.3651 16.0434C49.4475 16.0434 49.5313 16.0496 49.6157 16.0627C50.5063 16.2055 51.1181 17.046 50.9794 17.9358Z" fill="url(#paint0_linear_12_21)"/>
<path d="M55.8484 30.2199C55.6328 31.5754 55.9597 32.9335 56.7686 34.0459C57.5802 35.161 58.7763 35.8916 60.1379 36.1045C60.405 36.1464 60.6701 36.167 60.9331 36.1663C63.4215 36.1663 65.6215 34.3528 66.0245 31.8171C66.2367 30.4582 65.9071 29.0979 65.0969 27.9863C64.286 26.8739 63.0898 26.1447 61.7296 25.9332H61.7303C58.9239 25.4958 56.2852 27.4211 55.8484 30.2199ZM62.2597 30.0551C62.5178 30.4094 62.6222 30.8427 62.5556 31.2705C62.4135 32.1617 61.571 32.7729 60.679 32.6348C60.2471 32.5676 59.8667 32.3348 59.6085 31.9798C59.3524 31.6275 59.2487 31.1991 59.3174 30.7665C59.4437 29.9604 60.142 29.3829 60.9351 29.3829C61.0189 29.3829 61.104 29.3891 61.1892 29.4028C61.6211 29.4701 62.0015 29.7015 62.2597 30.0551Z" fill="url(#paint1_linear_12_21)"/>
<path d="M68.0022 48.7999C68.8131 49.9116 70.0092 50.6415 71.3688 50.853C71.6373 50.8955 71.9064 50.9161 72.1735 50.9161C73.255 50.9161 74.3056 50.5756 75.1968 49.926C76.3099 49.1151 77.0391 47.9203 77.2513 46.5614C77.4635 45.2039 77.1339 43.8444 76.3229 42.7334C75.5113 41.6224 74.3159 40.8932 72.9563 40.681C70.1507 40.2436 67.5126 42.1662 67.0745 44.9684C66.8623 46.328 67.1919 47.6882 68.0022 48.7999ZM70.5441 45.5109C70.6698 44.7068 71.3681 44.1314 72.1598 44.1314C72.2443 44.1314 72.3294 44.1376 72.4146 44.1513H72.4159C72.8478 44.2186 73.2282 44.4507 73.4864 44.8043C73.7439 45.1572 73.849 45.5885 73.7817 46.0197C73.7144 46.4509 73.4823 46.8306 73.1287 47.0881C72.775 47.3463 72.3418 47.4513 71.9099 47.3833C71.4773 47.3161 71.0976 47.0847 70.8394 46.731C70.5812 46.3767 70.4762 45.9434 70.5441 45.5109Z" fill="url(#paint2_linear_12_21)"/>
<path d="M89.0115 11.1366C87.5902 9.18794 85.5021 7.91078 83.1325 7.5393L73.2612 5.99572C72.3054 5.84603 71.4045 6.50109 71.2555 7.45965C71.1052 8.41753 71.7609 9.31566 72.7188 9.46535L82.5893 11.0089C84.0327 11.2348 85.3057 12.0156 86.175 13.2062C87.0436 14.3968 87.3972 15.8464 87.1706 17.2876L81.49 53.5316C81.0657 56.239 78.718 58.1795 76.0573 58.1795C75.7778 58.1795 75.4949 58.1582 75.2099 58.1136L55.4867 55.025V42.7251C55.4867 37.7593 51.4444 33.7191 46.4758 33.7191H36.3046L40.0337 9.9151C40.2596 8.47177 41.0417 7.19873 42.2351 6.32943C43.4265 5.4622 44.8753 5.10995 46.3179 5.33792L58.9248 7.31958C59.8812 7.46995 60.7814 6.81558 60.9318 5.85771C61.0822 4.89984 60.4278 4.00102 59.4699 3.85064L46.8645 1.86898C44.4956 1.49476 42.1184 2.07085 40.1676 3.49084C38.2155 4.9122 36.9363 7.00029 36.5641 9.37128L32.7505 33.7198H9.76086C4.79229 33.7191 0.75 37.7593 0.75 42.7251V79.4072C0.75 84.3757 4.79229 88.4173 9.76086 88.4173H46.4758C51.4444 88.4173 55.4867 84.3757 55.4867 79.4072V58.5798L74.6689 61.5832C75.1358 61.656 75.5993 61.691 76.0573 61.691C80.4175 61.691 84.2641 58.5111 84.9596 54.0754L90.6403 17.8321C91.0117 15.4632 90.4336 13.0853 89.0115 11.1366ZM51.9752 79.4072C51.9752 82.4387 49.5081 84.9058 46.4758 84.9058H9.76086C6.72863 84.9058 4.26151 82.4387 4.26151 79.4072V42.7251C4.26151 39.6956 6.72863 37.2313 9.76086 37.2313H34.2481H34.2549H34.2604H46.4758C49.5081 37.2313 51.9745 39.6956 51.9745 42.7251V79.4072H51.9752Z" fill="url(#paint3_linear_12_21)"/>
<path d="M14.6794 43.8073C11.8402 43.8073 9.53027 46.1158 9.53027 48.9537C9.53027 51.7916 11.8402 54.1008 14.6794 54.1008C17.5215 54.1008 19.8334 51.7916 19.8334 48.9537C19.8334 46.1158 17.5215 43.8073 14.6794 43.8073ZM14.6794 50.5886C13.7765 50.5886 13.0418 49.8553 13.0418 48.9537C13.0418 48.0528 13.7765 47.3188 14.6794 47.3188C15.5851 47.3188 16.3219 48.0528 16.3219 48.9537C16.3219 49.8553 15.5851 50.5886 14.6794 50.5886Z" fill="url(#paint4_linear_12_21)"/>
<path d="M28.178 55.1946C25.3387 55.1946 23.0288 57.5038 23.0288 60.3411C23.0288 63.1817 25.3387 65.493 28.178 65.493C31.0173 65.493 33.3271 63.1824 33.3271 60.3411C33.3271 57.5038 31.0173 55.1946 28.178 55.1946ZM28.178 61.9815C27.275 61.9815 26.5403 61.2461 26.5403 60.3417C26.5403 59.4402 27.275 58.7068 28.178 58.7068C29.0809 58.7068 29.8156 59.4402 29.8156 60.3417C29.8156 61.2461 29.0809 61.9815 28.178 61.9815Z" fill="url(#paint5_linear_12_21)"/>
<path d="M41.5525 43.8616C38.7132 43.8616 36.4033 46.1708 36.4033 49.0087C36.4033 51.8466 38.7132 54.1551 41.5525 54.1551C44.3945 54.1551 46.7065 51.8466 46.7065 49.0087C46.7065 46.1708 44.3938 43.8616 41.5525 43.8616ZM41.5525 50.6436C40.6495 50.6436 39.9148 49.9102 39.9148 49.0087C39.9148 48.1071 40.6495 47.3738 41.5525 47.3738C42.4582 47.3738 43.1949 48.1071 43.1949 49.0087C43.1949 49.9102 42.4582 50.6436 41.5525 50.6436Z" fill="url(#paint6_linear_12_21)"/>
<path d="M14.6794 67.9766C11.8402 67.9766 9.53027 70.2851 9.53027 73.123C9.53027 75.9609 11.8402 78.2701 14.6794 78.2701C17.5215 78.2701 19.8334 75.9609 19.8334 73.123C19.8334 70.2851 17.5215 67.9766 14.6794 67.9766ZM14.6794 74.7579C13.7765 74.7579 13.0418 74.0245 13.0418 73.123C13.0418 72.2214 13.7765 71.4881 14.6794 71.4881C15.5851 71.4881 16.3219 72.2214 16.3219 73.123C16.3219 74.0245 15.5851 74.7579 14.6794 74.7579Z" fill="url(#paint7_linear_12_21)"/>
<path d="M41.5525 68.0315C38.7132 68.0315 36.4033 70.34 36.4033 73.1779C36.4033 76.0158 38.7132 78.325 41.5525 78.325C44.3945 78.325 46.7065 76.0158 46.7065 73.1779C46.7065 70.34 44.3938 68.0315 41.5525 68.0315ZM41.5525 74.8128C40.6495 74.8128 39.9148 74.0795 39.9148 73.1779C39.9148 72.2763 40.6495 71.543 41.5525 71.543C42.4582 71.543 43.1949 72.2763 43.1949 73.1779C43.1949 74.0795 42.4582 74.8128 41.5525 74.8128Z" fill="url(#paint8_linear_12_21)"/>
<path d="M65.8498 8.3921L65.88 8.39691C65.9775 8.41339 66.0743 8.42163 66.1705 8.42163C67.0137 8.42163 67.7573 7.81258 67.9001 6.95427C68.0594 5.99777 67.4133 5.09277 66.4575 4.93347L66.4273 4.92866C65.4687 4.76867 64.5658 5.41549 64.4065 6.37199C64.2472 7.3278 64.8933 8.2328 65.8498 8.3921Z" fill="url(#paint9_linear_12_21)"/>
</g>
<defs>
<linearGradient id="paint0_linear_12_21" x1="44.2095" y1="17.6792" x2="54.5109" y2="17.6792" gradientUnits="userSpaceOnUse">
<stop stop-color="#2132A8"/>
<stop offset="1" stop-color="#F82582"/>
</linearGradient>
<linearGradient id="paint1_linear_12_21" x1="55.7837" y1="31.0188" x2="66.0873" y2="31.0188" gradientUnits="userSpaceOnUse">
<stop stop-color="#2132A8"/>
<stop offset="1" stop-color="#F82582"/>
</linearGradient>
<linearGradient id="paint2_linear_12_21" x1="67.0117" y1="45.7675" x2="77.3141" y2="45.7675" gradientUnits="userSpaceOnUse">
<stop stop-color="#2132A8"/>
<stop offset="1" stop-color="#F82582"/>
</linearGradient>
<linearGradient id="paint3_linear_12_21" x1="0.75" y1="45.0875" x2="90.7501" y2="45.0875" gradientUnits="userSpaceOnUse">
<stop stop-color="#2132A8"/>
<stop offset="1" stop-color="#F82582"/>
</linearGradient>
<linearGradient id="paint4_linear_12_21" x1="9.53027" y1="48.9541" x2="19.8334" y2="48.9541" gradientUnits="userSpaceOnUse">
<stop stop-color="#2132A8"/>
<stop offset="1" stop-color="#F82582"/>
</linearGradient>
<linearGradient id="paint5_linear_12_21" x1="23.0288" y1="60.3438" x2="33.3271" y2="60.3438" gradientUnits="userSpaceOnUse">
<stop stop-color="#2132A8"/>
<stop offset="1" stop-color="#F82582"/>
</linearGradient>
<linearGradient id="paint6_linear_12_21" x1="36.4033" y1="49.0083" x2="46.7065" y2="49.0083" gradientUnits="userSpaceOnUse">
<stop stop-color="#2132A8"/>
<stop offset="1" stop-color="#F82582"/>
</linearGradient>
<linearGradient id="paint7_linear_12_21" x1="9.53027" y1="73.1233" x2="19.8334" y2="73.1233" gradientUnits="userSpaceOnUse">
<stop stop-color="#2132A8"/>
<stop offset="1" stop-color="#F82582"/>
</linearGradient>
<linearGradient id="paint8_linear_12_21" x1="36.4033" y1="73.1783" x2="46.7065" y2="73.1783" gradientUnits="userSpaceOnUse">
<stop stop-color="#2132A8"/>
<stop offset="1" stop-color="#F82582"/>
</linearGradient>
<linearGradient id="paint9_linear_12_21" x1="64.3823" y1="6.66299" x2="67.9242" y2="6.66299" gradientUnits="userSpaceOnUse">
<stop stop-color="#2132A8"/>
<stop offset="1" stop-color="#F82582"/>
</linearGradient>
<clipPath id="clip0_12_21">
<rect width="90" height="90" fill="white" transform="translate(0.75)"/>
</clipPath>
</defs>
</svg>
