<svg width="91" height="90" viewBox="0 0 91 90" fill="none" xmlns="http://www.w3.org/2000/svg">
<g clip-path="url(#clip0_12_105)">
<path d="M35.3173 67.1535L37.2027 66.0285C37.4465 65.8829 37.6515 65.6806 37.8 65.4385C40.4332 61.1489 40.727 56.8646 38.6056 53.6839C37.083 51.401 34.5266 50.081 31.9068 50.1601C29.304 47.7558 26.2292 46.3612 22.9669 46.1144C19.7712 45.8727 16.5776 46.7658 13.9762 48.6296C11.513 50.3941 9.74939 52.9285 9.01023 55.7658C8.19496 58.8947 8.62703 62.2683 10.2593 65.5217C10.4325 65.8667 10.7143 66.1452 11.0614 66.3141L12.9954 67.2551V68.2927C12.9954 70.8642 13.8718 73.2334 15.3385 75.1227C10.9749 78.0491 8.33594 82.9115 8.33594 88.2425C8.33594 89.2131 9.12291 90.0003 10.0938 90.0003H16.2468C17.2176 90.0003 18.0046 89.2131 18.0046 88.2425C18.0046 87.2718 17.2176 86.4846 16.2468 86.4846H11.9764C12.5071 82.7741 14.7027 79.5119 18.0044 77.5987C19.7696 78.7694 21.8841 79.4536 24.1562 79.4536C26.428 79.4536 28.5425 78.7696 30.3074 77.5993C33.6077 79.5126 35.8046 82.7774 36.336 86.4846H32.0671C31.0963 86.4846 30.3093 87.2718 30.3093 88.2425C30.3093 89.2131 31.0963 90.0003 32.0671 90.0003H38.2188C39.1896 90.0003 39.9766 89.2131 39.9766 88.2425C39.9766 82.9184 37.3358 78.0512 32.9736 75.1234C34.4407 73.2341 35.3173 70.8645 35.3173 68.2927V67.1535ZM16.0237 51.4873C19.6072 48.9205 25.3219 48.4595 30.0106 53.2165C30.4084 53.6199 30.9762 53.8069 31.5359 53.7187C33.0879 53.475 34.7537 54.2441 35.681 55.6342C36.8916 57.4495 36.7302 60.0231 35.2642 62.7906C35.151 62.3321 34.8578 61.9313 34.4386 61.6893L34.2108 61.5583C32.7237 60.706 31.6493 60.0902 31.3722 57.8265C31.2905 57.1592 30.8356 56.5971 30.2001 56.3782C29.5645 56.1589 28.86 56.322 28.3845 56.7971C25.6831 59.4985 18.3672 61.4539 14.7535 61.4539C13.8305 61.4539 13.0752 62.1658 13.0029 63.0702C10.7804 57.7398 13.1676 53.5336 16.0237 51.4873ZM16.511 68.2925V64.8737C20.1581 64.5094 25.2102 63.1196 28.661 60.9865C29.474 62.6422 30.7231 63.5673 31.8017 64.2221V68.2925C31.8017 72.5081 28.372 75.9378 24.1562 75.9378C19.9405 75.9378 16.511 72.5081 16.511 68.2925Z" fill="url(#paint0_linear_12_105)"/>
<path d="M80.4055 80.9871V60.1366C80.4055 52.3834 74.0976 46.0755 66.3442 46.0755C58.5909 46.0755 52.283 52.3834 52.283 60.1366V80.9832C51.146 83.1813 50.5239 85.6563 50.5239 88.2421C50.5239 89.2127 51.3109 89.9999 52.2817 89.9999H80.4067C81.3776 89.9999 82.1646 89.2127 82.1646 88.2421C82.1647 85.66 81.5426 83.1856 80.4055 80.9871ZM58.6992 68.2925V64.8776C61.8463 64.5382 64.4055 63.2581 66.3444 61.0552C68.2833 63.2581 70.8425 64.5382 73.9897 64.8776V68.2925C73.9897 72.5081 70.56 75.9378 66.3444 75.9378C62.1288 75.9378 58.6992 72.5081 58.6992 68.2925ZM75.1616 75.123C75.9001 74.172 76.4877 73.0994 76.8899 71.9401V76.4626C76.3494 75.9806 75.7724 75.5329 75.1616 75.123ZM66.3444 49.5911C72.1593 49.5911 76.8899 54.3218 76.8899 60.1366V61.8774C76.5824 61.6139 76.1839 61.4537 75.7473 61.4537C72.0615 61.4537 69.5573 60.0897 67.8665 57.161C67.5526 56.6171 66.9723 56.2821 66.3442 56.2821C65.7162 56.2821 65.1359 56.6171 64.822 57.161C63.1311 60.0897 60.627 61.4537 56.9412 61.4537C56.5045 61.4537 56.106 61.6139 55.7986 61.8774V60.1366C55.7988 54.3218 60.5296 49.5911 66.3444 49.5911ZM57.5267 75.1225C56.916 75.532 56.3393 75.9794 55.7988 76.4609V71.9401C56.201 73.0992 56.7884 74.1717 57.5267 75.1225ZM54.1644 86.4844C54.695 82.7739 56.8907 79.5117 60.1924 77.5985C61.9576 78.7692 64.0721 79.4534 66.3442 79.4534C68.616 79.4534 70.7305 78.7694 72.4953 77.5991C75.7955 79.5124 77.9926 82.7772 78.5239 86.4844H54.1644Z" fill="url(#paint1_linear_12_105)"/>
<path d="M24.1578 86.4844H24.1565C23.1857 86.4844 22.3994 87.2715 22.3994 88.2422C22.3994 89.2129 23.1869 90 24.1578 90C25.1286 90 25.9156 89.2129 25.9156 88.2422C25.9156 87.2715 25.1286 86.4844 24.1578 86.4844Z" fill="url(#paint2_linear_12_105)"/>
<path d="M80.4066 22.8517C80.4066 12.1899 71.7325 3.5158 61.0706 3.5158H47.0083V1.75781C47.0083 0.787149 46.2213 0 45.2505 0C44.2796 0 43.4927 0.787149 43.4927 1.75781V3.5158H29.4302C18.7683 3.5158 10.0942 12.1899 10.0942 22.8517C10.0942 33.5136 18.7683 42.1877 29.4302 42.1877C35.2705 42.1877 40.6575 39.6362 44.3464 35.1561H46.1544C49.8433 39.6362 55.2303 42.1877 61.0706 42.1877C71.7325 42.1877 80.4066 33.5136 80.4066 22.8517ZM48.413 32.3425C48.0809 31.9004 47.5602 31.6405 47.0074 31.6405H43.493C42.9402 31.6405 42.4195 31.9004 42.0875 32.3425C39.0662 36.3651 34.4526 38.6721 29.43 38.6721C20.7067 38.6721 13.6097 31.5751 13.6097 22.8517C13.6097 14.1284 20.7067 7.03143 29.4354 7.03143H61.0706C69.7939 7.03143 76.8909 14.1284 76.8909 22.8517C76.8909 31.5751 69.7939 38.6721 61.0706 38.6721C56.0478 38.6721 51.4343 36.3651 48.413 32.3425Z" fill="url(#paint3_linear_12_105)"/>
<path d="M34.7036 17.5783C34.7036 14.6704 32.338 12.3047 29.4302 12.3047C26.5224 12.3047 24.1567 14.6704 24.1567 17.5781V17.5783C21.249 17.5783 18.8833 19.944 18.8833 22.8517C18.8833 25.7595 21.249 28.1252 24.1567 28.1252C24.1567 31.0329 26.5224 33.3986 29.4302 33.3986C32.338 33.3986 34.7036 31.0329 34.7036 28.1252C37.6114 28.1252 39.9771 25.7595 39.9771 22.8517C39.9771 19.944 37.6114 17.5783 34.7036 17.5783ZM34.7036 24.6096H32.9458C31.975 24.6096 31.188 25.3967 31.188 26.3674V28.1252C31.188 29.0944 30.3994 29.883 29.4302 29.883C28.4609 29.883 27.6724 29.0944 27.6724 28.1252V26.3674C27.6724 25.3967 26.8854 24.6096 25.9146 24.6096H24.1567C23.1875 24.6096 22.3989 23.821 22.3989 22.8517C22.3989 21.8825 23.1875 21.0939 24.1567 21.0939H25.9146C26.8854 21.0939 27.6724 20.3068 27.6724 19.3361V17.5781C27.6724 16.6089 28.4609 15.8203 29.4302 15.8203C30.3994 15.8203 31.188 16.6089 31.188 17.5781V19.3361C31.188 20.3068 31.975 21.0939 32.9458 21.0939H34.7036C35.6729 21.0939 36.4614 21.8825 36.4614 22.8517C36.4614 23.821 35.6729 24.6096 34.7036 24.6096Z" fill="url(#paint4_linear_12_105)"/>
<path d="M61.0708 30.3092C62.0668 31.3052 63.3909 31.8537 64.7995 31.8537C66.208 31.8537 67.5322 31.3052 68.5281 30.3092C69.5241 29.3133 70.0726 27.9891 70.0726 26.5806C70.0726 25.172 69.524 23.8479 68.528 22.8519L68.5278 22.8517L68.5281 22.8514C70.5841 20.7954 70.5841 17.45 68.5281 15.394C66.4722 13.3383 63.1267 13.3381 61.0708 15.394L61.0706 15.3944L61.0705 15.394C60.0745 14.398 58.7503 13.8496 57.3418 13.8496C55.9332 13.8496 54.6091 14.398 53.6131 15.394C51.5573 17.45 51.5573 20.7954 53.6131 22.8514L53.6135 22.8517L53.6131 22.8519C51.5573 24.9078 51.5573 28.2533 53.6131 30.3092C54.6091 31.3052 55.9332 31.8537 57.3418 31.8537C58.7503 31.8537 60.0745 31.3052 61.0703 30.3092L61.0706 30.3089L61.0708 30.3092ZM59.8277 26.58L58.5844 27.8232C58.2525 28.1552 57.8113 28.338 57.3418 28.338C56.8724 28.338 56.4311 28.1552 56.0992 27.8232C55.414 27.1381 55.414 26.023 56.0992 25.3378L57.3425 24.0947C57.6721 23.7651 57.8573 23.3179 57.8573 22.8517C57.8573 22.3857 57.6722 21.9385 57.3425 21.6088L56.0992 20.3655C55.414 19.6804 55.414 18.5653 56.0992 17.8801C56.4311 17.548 56.8724 17.3652 57.3418 17.3652C57.8113 17.3652 58.2525 17.548 58.5844 17.8801L59.8277 19.1234C60.1573 19.453 60.6045 19.6383 61.0706 19.6383C61.5368 19.6383 61.984 19.453 62.3136 19.1234L63.5569 17.8801C64.2419 17.1949 65.3571 17.1949 66.0422 17.8801C66.7274 18.5653 66.7274 19.6801 66.0422 20.3655L64.7989 21.6088C64.4694 21.9385 64.2841 22.3857 64.2841 22.8517C64.2841 23.3179 64.4694 23.7651 64.7989 24.0947L66.0421 25.3378C66.7273 26.023 66.7273 27.1378 66.0421 27.8232C65.7102 28.1552 65.2688 28.338 64.7995 28.338C64.3301 28.338 63.8888 28.1552 63.5567 27.8232L62.3134 26.58C61.9701 26.2369 61.5203 26.0652 61.0705 26.0652C60.6206 26.0652 60.171 26.2369 59.8277 26.58Z" fill="url(#paint5_linear_12_105)"/>
</g>
<defs>
<linearGradient id="paint0_linear_12_105" x1="8.33594" y1="68.0379" x2="40.0096" y2="68.0379" gradientUnits="userSpaceOnUse">
<stop stop-color="#2132A8"/>
<stop offset="1" stop-color="#F82582"/>
</linearGradient>
<linearGradient id="paint1_linear_12_105" x1="50.5239" y1="68.0377" x2="82.1646" y2="68.0377" gradientUnits="userSpaceOnUse">
<stop stop-color="#2132A8"/>
<stop offset="1" stop-color="#F82582"/>
</linearGradient>
<linearGradient id="paint2_linear_12_105" x1="22.3994" y1="88.2422" x2="25.9156" y2="88.2422" gradientUnits="userSpaceOnUse">
<stop stop-color="#2132A8"/>
<stop offset="1" stop-color="#F82582"/>
</linearGradient>
<linearGradient id="paint3_linear_12_105" x1="10.0942" y1="21.0938" x2="80.4066" y2="21.0938" gradientUnits="userSpaceOnUse">
<stop stop-color="#2132A8"/>
<stop offset="1" stop-color="#F82582"/>
</linearGradient>
<linearGradient id="paint4_linear_12_105" x1="18.8833" y1="22.8517" x2="39.9771" y2="22.8517" gradientUnits="userSpaceOnUse">
<stop stop-color="#2132A8"/>
<stop offset="1" stop-color="#F82582"/>
</linearGradient>
<linearGradient id="paint5_linear_12_105" x1="52.0713" y1="22.8516" x2="70.0726" y2="22.8516" gradientUnits="userSpaceOnUse">
<stop stop-color="#2132A8"/>
<stop offset="1" stop-color="#F82582"/>
</linearGradient>
<clipPath id="clip0_12_105">
<rect width="90" height="90" fill="white" transform="translate(0.25)"/>
</clipPath>
</defs>
</svg>
