<svg width="91" height="90" viewBox="0 0 91 90" fill="none" xmlns="http://www.w3.org/2000/svg">
<path d="M49.3772 4.59985H42.1226C41.3943 4.59985 40.8042 5.19013 40.8042 5.91821C40.8042 6.6463 41.3943 7.23657 42.1226 7.23657H49.3772C50.1055 7.23657 50.6956 6.6463 50.6956 5.91821C50.6956 5.19013 50.1055 4.59985 49.3772 4.59985Z" fill="url(#paint0_linear_12_10)"/>
<path d="M54.4103 72.8769V69.8007C54.4103 68.0961 53.0234 66.7092 51.3189 66.7092H40.1806C38.4761 66.7092 37.0894 68.0961 37.0894 69.8007V72.8769C37.0894 74.5814 38.4761 75.9683 40.1806 75.9683H51.3189C53.0236 75.9683 54.4103 74.5816 54.4103 72.8769ZM39.7261 72.8769V69.8007C39.7261 69.5498 39.93 69.3459 40.1806 69.3459H51.3189C51.5697 69.3459 51.7736 69.5498 51.7736 69.8007V72.8769C51.7736 73.1277 51.5697 73.3316 51.3189 73.3316H40.1806C39.93 73.3316 39.7261 73.1277 39.7261 72.8769Z" fill="url(#paint1_linear_12_10)"/>
<path d="M44.4316 22.0319V28.3356C44.4316 29.0636 45.0217 29.6539 45.75 29.6539C46.4783 29.6539 47.0684 29.0636 47.0684 28.3356V22.0319C47.0684 21.3038 46.4783 20.7135 45.75 20.7135C45.0217 20.7135 44.4316 21.3038 44.4316 22.0319Z" fill="url(#paint2_linear_12_10)"/>
<path d="M33.0558 24.1148C32.4253 24.4789 32.2093 25.2852 32.5733 25.9157L35.7251 31.375C36.0893 32.006 36.8961 32.2215 37.526 31.8575C38.1565 31.4934 38.3725 30.6871 38.0085 30.0566L34.8567 24.5974C34.4927 23.9668 33.686 23.7506 33.0558 24.1148Z" fill="url(#paint3_linear_12_10)"/>
<path d="M56.6431 24.5974L53.4913 30.0566C53.1273 30.6872 53.3433 31.4935 53.9738 31.8575C54.6052 32.2219 55.4112 32.0048 55.7747 31.375L58.9264 25.9157C59.2905 25.2852 59.0745 24.4789 58.4439 24.1149C57.8131 23.7505 57.0071 23.9669 56.6431 24.5974Z" fill="url(#paint4_linear_12_10)"/>
<path d="M28.2026 45.8414H31.2786L29.3083 53.657C29.0988 54.4875 29.7267 55.2979 30.5876 55.2979C31.1772 55.2979 31.7142 54.8992 31.865 54.3014L34.249 44.8452C34.3483 44.4513 34.2602 44.0333 34.0106 43.7128C33.7608 43.3922 33.3771 43.2047 32.9707 43.2047H28.2026C27.4744 43.2047 26.8843 43.7947 26.8843 44.523C26.8843 45.2513 27.4746 45.8414 28.2026 45.8414Z" fill="url(#paint5_linear_12_10)"/>
<path d="M43.0794 45.8414H46.1554L44.1851 53.657C43.9752 54.4896 44.6055 55.2979 45.4644 55.2979C46.054 55.2979 46.591 54.8992 46.7418 54.3014L49.1258 44.8452C49.2251 44.4513 49.137 44.0333 48.8874 43.7128C48.6376 43.3922 48.2539 43.2047 47.8475 43.2047H43.0796C42.3513 43.2047 41.7612 43.7947 41.7612 44.523C41.7612 45.2513 42.3513 45.8414 43.0794 45.8414Z" fill="url(#paint6_linear_12_10)"/>
<path d="M57.9556 45.8414H61.0316L59.0612 53.657C58.8517 54.4875 59.4796 55.2979 60.3406 55.2979C60.9301 55.2979 61.4672 54.8992 61.618 54.3014L64.0019 44.8452C64.1012 44.4513 64.0132 44.0333 63.7636 43.7128C63.5138 43.3922 63.13 43.2047 62.7236 43.2047H57.9556C57.2273 43.2047 56.6372 43.7947 56.6372 44.523C56.6372 45.2513 57.2275 45.8414 57.9556 45.8414Z" fill="url(#paint7_linear_12_10)"/>
<path d="M68.162 20.274C68.8903 20.274 69.4804 19.6838 69.4804 18.9557V5.09782C69.4804 2.28691 67.1935 0 64.3825 0H27.1174C24.3064 0 22.0195 2.28691 22.0195 5.09782V84.9024C22.0195 87.7131 24.3064 90 27.1174 90H64.3825C67.1935 90 69.4804 87.7131 69.4804 84.9024C69.4804 83.1155 69.4804 25.9122 69.4804 25.1078C69.4804 24.3798 68.8903 23.7895 68.162 23.7895C67.4338 23.7895 66.8437 24.3798 66.8437 25.1078V35.9078C64.7378 35.9078 26.0746 35.9078 24.6562 35.9078V9.75602H34.6042C34.8928 9.75602 35.1607 9.92705 35.321 10.2134C36.1542 11.7023 37.7257 12.6272 39.4218 12.6272H52.0781C53.7743 12.6272 55.3458 11.7023 56.179 10.2132C56.3392 9.92705 56.6072 9.75602 56.8959 9.75602H66.8437V18.9557C66.8437 19.6838 67.4338 20.274 68.162 20.274ZM64.3825 87.3633H27.1174C25.7603 87.3633 24.6562 86.2594 24.6562 84.9024V82.8809H42.6738C43.402 82.8809 43.9921 82.2908 43.9921 81.5625C43.9921 80.8343 43.402 80.2442 42.6738 80.2442H24.6562V61.5226H66.8437V80.2443H48.8261C48.0979 80.2443 47.5078 80.8344 47.5078 81.5627C47.5078 82.291 48.0979 82.8811 48.8261 82.8811H66.8437V84.9025C66.8437 86.2594 65.7394 87.3633 64.3825 87.3633ZM66.8437 58.8859H54.539V38.5447H66.8437V58.8859ZM51.9023 58.8859H39.5976V38.5447H51.9023V58.8859ZM36.9609 38.5447V58.8859H24.6562V38.5447H36.9609ZM56.8959 7.1193C55.6578 7.1193 54.5016 7.81153 53.8781 8.92563C53.5105 9.58235 52.8207 9.99051 52.0781 9.99051H39.4218C38.6792 9.99051 37.9896 9.58252 37.6218 8.92545C36.9982 7.81135 35.8419 7.1193 34.6042 7.1193H24.6562V5.09782C24.6562 3.74079 25.7603 2.63671 27.1174 2.63671H64.3825C65.7396 2.63671 66.8437 3.74079 66.8437 5.09782V7.1193H56.8959Z" fill="url(#paint8_linear_12_10)"/>
<defs>
<linearGradient id="paint0_linear_12_10" x1="40.8042" y1="5.91821" x2="50.6956" y2="5.91821" gradientUnits="userSpaceOnUse">
<stop stop-color="#2132A8"/>
<stop offset="1" stop-color="#F82582"/>
</linearGradient>
<linearGradient id="paint1_linear_12_10" x1="37.0894" y1="71.3388" x2="54.4103" y2="71.3388" gradientUnits="userSpaceOnUse">
<stop stop-color="#2132A8"/>
<stop offset="1" stop-color="#F82582"/>
</linearGradient>
<linearGradient id="paint2_linear_12_10" x1="44.4316" y1="25.1837" x2="47.0684" y2="25.1837" gradientUnits="userSpaceOnUse">
<stop stop-color="#2132A8"/>
<stop offset="1" stop-color="#F82582"/>
</linearGradient>
<linearGradient id="paint3_linear_12_10" x1="32.3965" y1="27.9862" x2="38.1853" y2="27.9862" gradientUnits="userSpaceOnUse">
<stop stop-color="#2132A8"/>
<stop offset="1" stop-color="#F82582"/>
</linearGradient>
<linearGradient id="paint4_linear_12_10" x1="53.3145" y1="27.9861" x2="59.1033" y2="27.9861" gradientUnits="userSpaceOnUse">
<stop stop-color="#2132A8"/>
<stop offset="1" stop-color="#F82582"/>
</linearGradient>
<linearGradient id="paint5_linear_12_10" x1="26.8843" y1="49.2513" x2="34.289" y2="49.2513" gradientUnits="userSpaceOnUse">
<stop stop-color="#2132A8"/>
<stop offset="1" stop-color="#F82582"/>
</linearGradient>
<linearGradient id="paint6_linear_12_10" x1="41.7612" y1="49.2513" x2="49.1657" y2="49.2513" gradientUnits="userSpaceOnUse">
<stop stop-color="#2132A8"/>
<stop offset="1" stop-color="#F82582"/>
</linearGradient>
<linearGradient id="paint7_linear_12_10" x1="56.6372" y1="49.2513" x2="64.0419" y2="49.2513" gradientUnits="userSpaceOnUse">
<stop stop-color="#2132A8"/>
<stop offset="1" stop-color="#F82582"/>
</linearGradient>
<linearGradient id="paint8_linear_12_10" x1="22.0195" y1="45" x2="69.4804" y2="45" gradientUnits="userSpaceOnUse">
<stop stop-color="#2132A8"/>
<stop offset="1" stop-color="#F82582"/>
</linearGradient>
</defs>
</svg>
